<svg xmlns="http://www.w3.org/2000/svg" width="64" height="64" viewBox="0 0 64 64">
  <rect x="2" y="2" width="60" height="60" rx="14" fill="#0f0f23"/>
  <g stroke="#00ffff" stroke-width="2.5" stroke-linecap="round" stroke-linejoin="round" fill="none">
    <rect x="14" y="16" width="26" height="34" rx="3"/>
    <path d="M18 20h18M18 26h18M18 32h14"/>
    <path d="M14 22h-3M14 28h-3M14 34h-3M14 40h-3M14 46h-3"/>
    <path d="M43 34h9a4 4 0 0 1 0 8h-9"/>
    <path d="M43 32v14a4 4 0 0 0 4 4h5"/>
    <path d="M46 29c0-2 2-3 2-5s-2-3-2-5"/>
  </g>
  <path d="M45 19c0-2 2-3 2-5s-2-3-2-5" stroke="#00ffff" stroke-width="2.5" stroke-linecap="round" fill="none" opacity="0.7"/>
</svg>
